<svg width="562" height="724" viewBox="0 0 562 724" fill="none" xmlns="http://www.w3.org/2000/svg">
<path d="M280.299 9.73608e-05C285.375 -0.14012 512.742 151.219 538.526 168.745C519.851 180.635 494.63 194.494 475.281 205.569L368.452 137.025C350.395 125.443 331.64 112.983 313.424 101.888C312.383 123.362 313.118 150.795 313.118 172.728L313.124 304.211L313.13 704.688C302.544 710.97 291.987 717.307 281.474 723.7C278.566 723.32 253.545 707.571 248.573 704.712C248.006 688.664 248.414 670.374 248.398 654.093L248.35 557.324L248.301 254.85L248.342 154.221C248.352 137.232 248.721 119.125 248.338 102.257C240.995 106.399 232.191 112.417 224.895 117.112L183.553 143.737C152.687 163.631 118.281 184.941 88.1642 205.573L24.5322 168.892C60.6717 143.058 102.635 116.001 139.8 91.607L280.299 9.73608e-05Z" fill="#0075F8"/>
<path d="M560.808 191.107C562.155 192.895 561.585 305.546 561.536 316.401C558.812 318.354 555.934 320.087 553.068 321.82C536.309 331.951 519.153 341.41 502.376 351.499L502.271 299.972L412.146 352.366C411.35 425.826 411.926 500.827 412.128 574.365L502.363 521.284C502.51 502.149 502.541 483.009 502.474 463.874C487.068 472.306 470.444 482.488 455.142 491.41L455.118 419.004L561.524 357.696L561.555 405.724L561.549 557.998C523.671 581.18 485.568 603.994 447.244 626.441C415.128 645.367 381.721 665.488 349.287 683.728L349.195 313.597C371.067 300.014 396.508 286.049 418.974 272.905C466.048 245.287 513.33 218.02 560.808 191.107Z" fill="#010518"/>
<path d="M0.333681 189.135L151.114 276.685C171.322 288.524 192.163 300.332 212.109 312.51L212.081 413.788C191.463 401.885 170.916 389.871 150.439 377.729L150.585 349.608C128.731 336.674 106.393 324.456 84.6682 311.273C77.1136 306.69 69.2883 302.062 61.5335 297.843C60.7234 318.593 61.4117 343.985 61.4399 365.054C76.4566 374.668 94.969 384.74 110.629 394.016L212.083 454.782L212.092 632.846C212.094 646.366 212.228 667.6 211.931 681.947C211.657 682.289 211.384 682.626 211.11 682.963C140.565 641.626 70.2582 599.879 0.194059 557.728L0.224666 456.729C20.5691 467.854 41.2081 480.486 61.4037 492.077L61.4282 521.278C90.4373 538.759 120.942 556.736 150.278 573.611C151.217 547.68 150.46 517.39 150.44 491.134L0.159153 402.46L0.172644 265.516C0.159786 240.504 -0.29883 213.972 0.333681 189.135Z" fill="#010518"/>
</svg>
